<?xml version="1.0" encoding="UTF-8"?>
<svg width="20px" height="20px" viewBox="0 0 20 20" version="1.1" xmlns="http://www.w3.org/2000/svg" xmlns:xlink="http://www.w3.org/1999/xlink">
    <title>提醒 (红)</title>
    <g id="首页" stroke="none" stroke-width="1" fill="none" fill-rule="evenodd">
        <g id="切图" transform="translate(-178.000000, -134.000000)" fill="#F84D4D" fill-rule="nonzero">
            <g id="提醒-(红)" transform="translate(178.000000, 134.000000)">
                <path d="M9.99571592,0.3642594 C4.71055352,0.3642594 0.42441572,4.6503972 0.42441572,9.9355596 C0.42441572,15.220722 4.71055352,19.5068598 9.99571592,19.5068598 C15.2830268,19.5068598 19.5670161,15.220722 19.5670161,9.9355596 C19.5670161,4.6503972 15.2808783,0.3642594 9.99571592,0.3642594 Z M9.99571592,15.5709177 C9.48223876,15.5709177 9.0654414,15.1541204 9.0654414,14.6406432 C9.0654414,14.127166 9.48223876,13.7103687 9.99571592,13.7103687 C10.5091931,13.7103687 10.9259904,14.127166 10.9259904,14.6406432 C10.9259904,15.1541204 10.5091931,15.5709177 9.99571592,15.5709177 Z M11.1494282,4.88457716 L10.9259904,11.1494282 C10.9259904,11.6629054 10.5091931,12.0797027 9.99571592,12.0797027 C9.48223876,12.0797027 9.0654414,11.6629054 9.0654414,11.1494282 L8.84200364,4.88457716 C8.83555832,4.83516304 8.83126144,4.78574892 8.83126144,4.73418636 C8.83126144,4.0918028 9.35118392,3.56973188 9.99571592,3.56973188 C10.6380995,3.56973188 11.1601704,4.08965436 11.1601704,4.73418636 C11.1601704,4.78574892 11.1558735,4.83516304 11.1494282,4.88457716 Z" id="形状"></path>
            </g>
        </g>
    </g>
</svg>