<?xml version="1.0" encoding="UTF-8"?>
<svg width="20px" height="10px" viewBox="0 0 20 10" version="1.1" xmlns="http://www.w3.org/2000/svg" xmlns:xlink="http://www.w3.org/1999/xlink">
    <title>chakanmima-2</title>
    <g id="1.2版本" stroke="none" stroke-width="1" fill="none" fill-rule="evenodd">
        <g id="注册" transform="translate(-1278.000000, -652.000000)" fill="#333333" fill-rule="nonzero">
            <g id="chakanmima-2" transform="translate(1278.000000, 652.000000)">
                <path d="M18.8882473,1.98960068 C19.0771459,1.71207456 19.0217267,1.34383102 18.7586359,1.12837269 C18.623303,1.02691022 18.4504121,0.982741069 18.280124,1.00612526 C18.109836,1.02950945 17.9569719,1.1184117 17.8570404,1.252181 C17.8240691,1.28367609 14.2540692,5.30961832 10.0053147,5.30961832 C5.88617156,5.30961832 2.15358895,1.252181 2.12175455,1.22285798 C1.97207336,1.0581503 1.74177307,0.982232755 1.51760557,1.02370275 C1.29343807,1.06517275 1.10945973,1.21773001 1.03497342,1.42390769 C0.960487113,1.63008537 1.00680907,1.85856017 1.15649026,2.02326785 C1.77717401,2.70225805 2.46689046,3.32071213 3.21549335,3.86953216 L1.57488515,5.4985889 C1.45552865,5.61500088 1.39146929,5.77313353 1.39770327,5.93596822 C1.40393725,6.09880291 1.47991726,6.25204362 1.60785649,6.3598169 C1.69106006,6.48490053 1.83973759,6.55591089 1.99441697,6.54444333 C2.16600811,6.54464309 2.33025725,6.47796265 2.44919402,6.3598169 L4.21941368,4.60803788 C5.12434748,5.21099539 6.10874933,5.69704394 7.14704092,6.05355423 L6.47169701,8.23106007 C6.42267415,8.39068582 6.4433473,8.56246693 6.52901086,8.70730269 C6.61467442,8.85213844 6.75803972,8.95770554 6.92647405,9 L7.1197543,9 C7.41147539,9.00252374 7.66584164,8.81103225 7.73142942,8.53949482 L8.40677334,6.35655879 C9.46903876,6.5605775 10.5631925,6.5605775 11.6254579,6.35655879 L12.3008018,8.50799972 C12.3742995,8.77466526 12.6238661,8.96254345 12.9124769,8.96847976 C12.9761457,8.96847976 13.0420884,8.96847976 13.0727858,8.93698466 C13.2413964,8.89498425 13.3849684,8.78946373 13.4706807,8.64454547 C13.5563931,8.49962721 13.5769178,8.32770104 13.5275629,8.16806988 L12.852219,6.01880102 C13.8908318,5.66299511 14.8753282,5.1768999 15.7798462,4.57328467 L17.5170945,6.29465463 C17.6342687,6.41225435 17.7967956,6.47881953 17.9667553,6.47881953 C18.1367151,6.47881953 18.299242,6.41225435 18.4164161,6.29465463 C18.6662496,6.06198401 18.6807623,5.68290711 18.4493875,5.43342663 L16.8087793,3.80436989 C17.5758199,3.27711029 18.2783213,2.66908686 18.9030276,1.99177275 L18.8882473,1.98960068 Z" id="路径"></path>
            </g>
        </g>
    </g>
</svg>