<?xml version="1.0" encoding="UTF-8"?>
<svg width="20px" height="16px" viewBox="0 0 20 16" version="1.1" xmlns="http://www.w3.org/2000/svg" xmlns:xlink="http://www.w3.org/1999/xlink">
    <title>chakanmima</title>
    <g id="1.2版本" stroke="none" stroke-width="1" fill="none" fill-rule="evenodd">
        <g id="注册" transform="translate(-1226.000000, -649.000000)" fill="#333333" fill-rule="nonzero">
            <g id="chakanmima" transform="translate(1226.000000, 649.000000)">
                <path d="M9.55925,6.044375 C7.61004913,6.05043973 6.03358636,7.63316541 6.03524636,9.582375 C6.03248244,11.532365 7.60926752,13.1163091 9.55925,13.122375 C11.5088416,13.1157588 13.0850188,11.5319758 13.0822536,9.582375 C13.0839151,7.63355447 11.50806,6.05098981 9.55925,6.044375 Z M11.904252,9.582375 C11.904252,10.883375 10.85225,11.939375 9.55925,11.939375 C8.26151625,11.9344144 7.21258664,10.8801172 7.21424802,9.582375 C7.21424802,8.282375 8.26625,7.226375 9.55925,7.226375 C10.8568224,7.2307856 11.9059119,8.28479619 11.904252,9.582375 L11.904252,9.582375 Z M19.03925,9.302375 L18.86925,8.989375 C18.27125,7.890375 17.40625,6.836375 16.35525,5.931375 L18.19125,4.779375 C18.3825751,4.65671431 18.4823662,4.43181565 18.4449329,4.20765125 C18.4074996,3.98348686 18.240049,3.80321497 18.01925,3.749375 C17.8736137,3.71449218 17.720066,3.73972303 17.59325,3.819375 L15.40825,5.190375 L15.16225,5.020375 C14.3021093,4.43786861 13.3642373,3.9793684 12.37625,3.658375 L13.31625,0.750375 C13.4109525,0.452850043 13.2486609,0.134508843 12.95225,0.036375 C12.8102376,-0.0110800358 12.6550398,0.00119141666 12.52225,0.070375 C12.3880343,0.137861556 12.28698,0.2569612 12.24225,0.400375 L11.27925,3.376375 C10.7120406,3.26454446 10.1353772,3.20761486 9.55725,3.206375 C8.99025,3.206375 8.41125,3.263375 7.83425,3.376375 L6.87425,0.402375 C6.8285093,0.258583432 6.72638778,0.139501797 6.59125,0.072375 C6.4582064,0.00408036112 6.30337333,-0.00816225364 6.16125,0.038375 C5.86525727,0.136898906 5.70378579,0.45538133 5.79925,0.752375 L6.73925,3.660375 C5.77925,3.968375 4.84425,4.424375 3.95425,5.022375 C3.87725,5.074375 3.79725,5.127375 3.70725,5.192375 L1.52525,3.819375 C1.39878081,3.73797522 1.24476854,3.71117915 1.09823847,3.74508071 C0.951708391,3.77898227 0.825115719,3.87069979 0.74725,3.999375 C0.582808643,4.2643566 0.663228608,4.61239634 0.92725,4.778375 L2.76125,5.931375 C1.89125,6.681375 1.13625,7.551375 0.56925,8.451375 C0.45825,8.626375 0.34925,8.809375 0.24825,8.996375 L0.18825,9.105375 L0.08425,9.288375 C-0.0191846638,9.47037208 -0.0191846638,9.69337792 0.08425,9.875375 L0.25725,10.180375 C1.07125,11.680375 2.38325,13.085375 3.95325,14.137375 C5.72525,15.327375 7.66325,15.955375 9.55625,15.955375 C11.44625,15.955375 13.38525,15.327375 15.15925,14.137375 C16.73125,13.085375 18.04725,11.677375 18.86625,10.174375 L19.03425,9.864375 C19.13425,9.689375 19.13425,9.477375 19.03825,9.302375 L19.03925,9.302375 Z M17.84325,9.594375 L17.83625,9.609375 C16.43825,12.178375 13.14625,14.775375 9.55925,14.775375 C5.96725,14.775375 2.68025,12.178375 1.29225,9.611375 L1.29025,9.607375 L1.28425,9.600375 L1.27425,9.582375 L1.28425,9.565375 C1.28670529,9.5623369 1.28872476,9.55897113 1.29025,9.555375 L1.29225,9.552375 C1.37225,9.402375 1.46225,9.252375 1.55525,9.099375 C2.35025,7.845375 3.52625,6.689375 4.86925,5.845375 C6.37325,4.900375 7.99525,4.399375 9.55925,4.399375 C13.15125,4.399375 16.43825,6.997375 17.82625,9.563375 L17.83025,9.571375 L17.83025,9.569375 L17.84325,9.594375 L17.84325,9.594375 Z" id="形状"></path>
            </g>
        </g>
    </g>
</svg>